<svg xmlns="http://www.w3.org/2000/svg" width="70" height="70" viewBox="0 0 70 70">
  <g id="Group_16" data-name="Group 16" transform="translate(-120 -305)">
    <g id="Group_14" data-name="Group 14">
      <rect id="Rectangle_5" data-name="Rectangle 5" width="70" height="70" transform="translate(120 305)" fill="#2c211f"/>
    </g>
    <g id="Group_15" data-name="Group 15">
      <path id="Path_353" data-name="Path 353" d="M262.749,371.936H255.36V398.4H244.338V371.936H239.13v-9.326h5.208v-6.056a13.108,13.108,0,0,1,.848-4.784,9.3,9.3,0,0,1,3.331-4.421,11.629,11.629,0,0,1,6.9-1.938l8.176.061v9.084h-5.935a2.349,2.349,0,0,0-1.514.485,2.549,2.549,0,0,0-.787,2.059v5.511h8.357Z" transform="translate(-95.13 -29.401)" fill="#fff"/>
    </g>
  </g>
</svg>
