<svg xmlns="http://www.w3.org/2000/svg" width="70" height="70" viewBox="0 0 70 70">
  <g id="Group_19" data-name="Group 19" transform="translate(-210 -306)">
    <g id="Group_17" data-name="Group 17">
      <g id="Group_18" data-name="Group 18" transform="translate(0 1)">
        <rect id="Rectangle_5" data-name="Rectangle 5" width="70" height="70" transform="translate(210 305)" fill="#2c211f"/>
      </g>
    </g>
    <path id="iconmonstr-github-1" d="M27.567,0A27.227,27.227,0,0,0,0,26.87a26.947,26.947,0,0,0,18.853,25.5c1.376.248,1.822-.585,1.822-1.292V46.07C13.007,47.7,11.412,42.9,11.412,42.9a7.17,7.17,0,0,0-3.063-3.932c-2.5-1.668.19-1.633.19-1.633a5.776,5.776,0,0,1,4.227,2.77,5.955,5.955,0,0,0,8.022,2.233,5.648,5.648,0,0,1,1.754-3.6c-6.123-.683-12.559-2.987-12.559-13.28a10.255,10.255,0,0,1,2.837-7.208,9.439,9.439,0,0,1,.265-7.112s2.316-.719,7.582,2.754a26.785,26.785,0,0,1,13.807,0c5.255-3.473,7.573-2.754,7.573-2.754a9.429,9.429,0,0,1,.271,7.112,10.227,10.227,0,0,1,2.837,7.212c0,10.32-6.448,12.592-12.587,13.257A6.34,6.34,0,0,1,34.459,43.7v7.374c0,.714.441,1.55,1.84,1.289a26.947,26.947,0,0,0,18.835-25.5A27.226,27.226,0,0,0,27.567,0Z" transform="translate(218 313.79)" fill="#fff"/>
  </g>
</svg>
