<svg xmlns="http://www.w3.org/2000/svg" width="70" height="70" viewBox="0 0 70 70">
  <g id="Group_20" data-name="Group 20" transform="translate(-300 -305)">
    <rect id="Rectangle_5" data-name="Rectangle 5" width="70" height="70" transform="translate(300 305)" fill="#2c211f"/>
    <path id="Path_375" data-name="Path 375" d="M137.869,633.073a4.066,4.066,0,0,1,2.944,1.182,3.84,3.84,0,0,1,1.216,2.848v48a3.729,3.729,0,0,1-1.216,2.816,4.05,4.05,0,0,1-2.88,1.154H90.445a4.039,4.039,0,0,1-2.88-1.154,3.725,3.725,0,0,1-1.216-2.816v-48a3.84,3.84,0,0,1,1.216-2.848,4.064,4.064,0,0,1,2.944-1.182h47.36ZM102.477,650a4.48,4.48,0,0,0,0-6.272,4.651,4.651,0,0,0-3.392-1.246,4.767,4.767,0,0,0-3.424,1.246,4.149,4.149,0,0,0-1.312,3.136A4.193,4.193,0,0,0,95.629,650a4.558,4.558,0,0,0,3.328,1.248h.064A4.726,4.726,0,0,0,102.477,650Zm.768,4.706H94.861v25.28h8.384Zm30.272,10.752a12.261,12.261,0,0,0-2.752-8.574,8.956,8.956,0,0,0-14.464,1.408v-3.584h-8.384q.062,1.47,0,13.5v11.774H116.3V665.841a6.285,6.285,0,0,1,.256-2.048,5.1,5.1,0,0,1,1.536-2.11,4.25,4.25,0,0,1,2.816-.96,3.689,3.689,0,0,1,3.264,1.6,7.464,7.464,0,0,1,.96,4.1v13.566h8.384Z" transform="translate(220.651 -320.073)" fill="#fff"/>
  </g>
</svg>
